<svg width="82" height="75" viewBox="0 0 82 75" fill="none" xmlns="http://www.w3.org/2000/svg">
<g filter="url(#filter0_di_2082_911)">
<rect x="1.31055" y="1.31055" width="71.4218" height="64.2141" rx="6.55246" fill="url(#paint0_linear_2082_911)"/>
<rect x="1.47436" y="1.47436" width="71.0942" height="63.8865" rx="6.38865" stroke="#A7A7A7" stroke-width="0.327623"/>
</g>
<path d="M28.9397 30.3598H25.8818V41.0621H28.9397V30.3598ZM38.1131 30.3598H35.0553V41.0621H38.1131V30.3598ZM51.1088 44.12H22.0596V47.1778H51.1088V44.12ZM47.2866 30.3598H44.2287V41.0621H47.2866V30.3598ZM36.5842 20.0549L44.5498 24.2441H28.6186L36.5842 20.0549ZM36.5842 16.5996L22.0596 24.2441V27.302H51.1088V24.2441L36.5842 16.5996Z" fill="url(#paint1_linear_2082_911)"/>
<defs>
<filter id="filter0_di_2082_911" x="5.4121e-05" y="5.4121e-05" width="81.9058" height="74.6983" filterUnits="userSpaceOnUse" color-interpolation-filters="sRGB">
<feFlood flood-opacity="0" result="BackgroundImageFix"/>
<feColorMatrix in="SourceAlpha" type="matrix" values="0 0 0 0 0 0 0 0 0 0 0 0 0 0 0 0 0 0 127 0" result="hardAlpha"/>
<feOffset dx="3.93148" dy="3.93148"/>
<feGaussianBlur stdDeviation="2.62099"/>
<feComposite in2="hardAlpha" operator="out"/>
<feColorMatrix type="matrix" values="0 0 0 0 0 0 0 0 0 0 0 0 0 0 0 0 0 0 1 0"/>
<feBlend mode="normal" in2="BackgroundImageFix" result="effect1_dropShadow_2082_911"/>
<feBlend mode="normal" in="SourceGraphic" in2="effect1_dropShadow_2082_911" result="shape"/>
<feColorMatrix in="SourceAlpha" type="matrix" values="0 0 0 0 0 0 0 0 0 0 0 0 0 0 0 0 0 0 127 0" result="hardAlpha"/>
<feOffset dx="6.55246" dy="6.55246"/>
<feGaussianBlur stdDeviation="2.94861"/>
<feComposite in2="hardAlpha" operator="arithmetic" k2="-1" k3="1"/>
<feColorMatrix type="matrix" values="0 0 0 0 0 0 0 0 0 0 0 0 0 0 0 0 0 0 0.25 0"/>
<feBlend mode="normal" in2="shape" result="effect2_innerShadow_2082_911"/>
</filter>
<linearGradient id="paint0_linear_2082_911" x1="1.31055" y1="6.22489" x2="72.7324" y2="60.938" gradientUnits="userSpaceOnUse">
<stop/>
<stop offset="0.528929" stop-color="#282828"/>
<stop offset="1"/>
</linearGradient>
<linearGradient id="paint1_linear_2082_911" x1="36.5842" y1="16.5996" x2="36.5842" y2="47.1778" gradientUnits="userSpaceOnUse">
<stop stop-color="#C9B467"/>
<stop offset="0.322115" stop-color="#D9C795"/>
<stop offset="0.635378" stop-color="#ECDBA5"/>
<stop offset="1" stop-color="#B9A560"/>
</linearGradient>
</defs>
</svg>
