<svg width="82" height="75" viewBox="0 0 82 75" fill="none" xmlns="http://www.w3.org/2000/svg">
<g filter="url(#filter0_di_2082_915)">
<rect x="1.31055" y="1.31055" width="71.4218" height="64.2141" rx="6.55246" fill="url(#paint0_linear_2082_915)"/>
<rect x="1.47436" y="1.47436" width="71.0942" height="63.8865" rx="6.38865" stroke="#A7A7A7" stroke-width="0.327623"/>
</g>
<path d="M16.4206 39.006H16.7419L16.4421 40.2483C16.3962 40.3888 16.4038 40.5414 16.4635 40.6766C16.5492 40.7837 16.6777 40.8266 16.8062 40.8052C16.9561 40.8052 17.106 40.7623 17.2131 40.6766C17.3202 40.5696 17.4059 40.4196 17.4487 40.2483L17.7486 39.006H18.0699L17.77 40.2911C17.7272 40.5267 17.5987 40.7623 17.4059 40.9123C17.2147 41.0558 16.981 41.1312 16.7419 41.1264C16.4635 41.1264 16.2707 41.0622 16.185 40.9337C16.0994 40.8052 16.0565 40.591 16.1208 40.3125L16.4206 39.0274V39.006ZM18.027 41.0408L18.5411 38.9203L19.5049 40.184C19.5049 40.184 19.5478 40.2483 19.5906 40.2911C19.6335 40.3339 19.6335 40.3768 19.6763 40.4196L20.019 39.006H20.3189L19.8048 41.1264L18.8195 39.8413L18.7339 39.7342L18.6696 39.6057L18.3269 41.0408H18.027ZM20.276 41.0408L20.7686 38.9846H21.0899L20.5973 41.0408H20.276ZM21.0471 41.0408L21.5397 38.9846H22.6535L22.5892 39.263H21.7967L21.6682 39.7771H22.4607L22.3965 40.0769H21.604L21.3684 41.0408H21.0471ZM22.525 41.0408L23.0176 38.9846H23.3389L22.8463 41.0408H22.525ZM23.3175 41.0408L23.8101 38.9846H24.9239L24.8596 39.263H24.0671L23.9386 39.7771H24.7311L24.6669 40.0769H23.8744L23.7244 40.7409H24.5169L24.4527 41.0408H23.3389H23.3175ZM24.8168 41.0408L25.3094 38.9846H25.7378C25.9306 38.9846 26.1447 38.9846 26.3375 39.0274C26.4446 39.0488 26.5303 39.1131 26.616 39.1773C26.7016 39.263 26.7659 39.3915 26.7873 39.52C26.8087 39.6914 26.7873 39.8413 26.7659 40.0127C26.7231 40.184 26.6588 40.3554 26.5517 40.5053C26.466 40.6338 26.3375 40.7623 26.209 40.848C26.1019 40.9123 25.9948 40.9765 25.8663 40.9979C25.695 41.0408 25.5236 41.0408 25.3308 41.0408H24.8168ZM25.2237 40.7409H25.5022C25.6093 40.7409 25.7378 40.7409 25.8449 40.7195C25.9306 40.7195 25.9948 40.6552 26.0591 40.6124C26.2548 40.4684 26.3857 40.2528 26.4232 40.0127C26.4446 39.9056 26.466 39.7771 26.4446 39.67C26.4446 39.5843 26.4018 39.4986 26.3375 39.4129C26.2898 39.3641 26.231 39.3274 26.1662 39.3058C26.0469 39.2779 25.9238 39.2707 25.802 39.2844H25.5664L25.2237 40.7409ZM28.2438 40.1198L28.0296 41.0408H27.7297L28.2224 38.9846H28.715C28.715 38.9846 28.9292 38.9846 29.0363 39.006C29.1005 39.006 29.1434 39.0488 29.1862 39.0917C29.2505 39.1345 29.2719 39.2202 29.2933 39.2844V39.5415C29.2719 39.6271 29.229 39.7342 29.1648 39.8199C29.1219 39.9056 29.0577 39.9698 28.972 40.0127C28.9078 40.0555 28.8435 40.0769 28.7792 40.0983C28.6722 40.0983 28.5651 40.1198 28.458 40.1198H28.2652H28.2438ZM28.3295 39.8413H28.4151C28.5436 39.8413 28.6722 39.8413 28.8007 39.7771C28.8863 39.7342 28.9292 39.6485 28.9506 39.5629C28.972 39.4772 28.9506 39.3915 28.9078 39.3273C28.8007 39.263 28.6936 39.2416 28.5651 39.263H28.4794L28.3295 39.8413ZM30.3857 41.0408L30.2786 40.5053H29.4861L29.1219 41.0408H28.7792L30.2571 38.9203L30.7069 41.0408H30.3642H30.3857ZM29.6788 40.2269H30.2357L30.15 39.7556V39.52C30.15 39.5629 30.1072 39.6057 30.0858 39.6485C30.0858 39.6914 30.043 39.7128 30.0215 39.7556L29.7003 40.2269H29.6788ZM31.1996 41.0408L31.4138 40.0983L31.0068 38.9846H31.3495L31.6065 39.6914V39.7556C31.6065 39.7771 31.6065 39.8199 31.6279 39.8413L31.6922 39.7556C31.6922 39.7556 31.735 39.6914 31.7565 39.67L32.3562 38.9846H32.6775L31.735 40.0983L31.5208 41.0408H31.1996ZM34.2839 40.0341V39.7556C34.2839 39.7985 34.241 39.8413 34.2196 39.9056C34.1982 39.9484 34.1554 40.0127 34.1339 40.0555L33.3414 41.1479L33.0844 40.0341C33.0844 40.0341 33.0844 39.9484 33.063 39.9056V39.7771C33.063 39.8199 33.0416 39.8627 33.0202 39.9056C33.0202 39.9484 32.9773 40.0127 32.9559 40.0555L32.5061 41.0622H32.2062L33.1915 38.9203L33.47 40.2054V40.3125C33.47 40.3768 33.47 40.441 33.4914 40.4839C33.5342 40.4196 33.577 40.3554 33.6413 40.2697C33.6413 40.2697 33.6627 40.2269 33.6841 40.2054L34.5623 38.9203V41.0622H34.241V40.0341H34.2839ZM34.8193 41.0408L35.312 38.9846H36.4257L36.3615 39.263H35.569L35.4619 39.7771H36.2544L36.1901 40.0769H35.3976L35.2477 40.7409H36.0402L35.9759 41.0408H34.8622H34.8193ZM36.2972 41.0408L36.8113 38.9203L37.7751 40.184C37.7751 40.184 37.818 40.2483 37.8608 40.2911C37.9036 40.3339 37.9036 40.3768 37.9465 40.4196L38.2892 39.006H38.589L38.075 41.1264L37.0897 39.8413L37.0255 39.7342L36.9612 39.6057L36.6185 41.0408H36.3186H36.2972ZM39.6171 39.2844L39.1888 41.0408H38.8675L39.2958 39.2844H38.7604L38.8246 39.006H40.2169L40.1526 39.2844H39.6171ZM39.9598 40.6338L40.2383 40.5053C40.2383 40.5053 40.2597 40.6552 40.3239 40.7195C40.3882 40.7623 40.4739 40.8052 40.5595 40.7837C40.6452 40.7837 40.7309 40.7623 40.8166 40.6981C40.8808 40.6338 40.9451 40.5696 40.9451 40.4839C40.9665 40.3554 40.9023 40.2483 40.7309 40.1626C40.7309 40.1626 40.6881 40.1412 40.6666 40.1412C40.5196 40.0773 40.3934 39.9734 40.3025 39.8413C40.2597 39.7342 40.2383 39.6271 40.2811 39.52C40.3239 39.3487 40.4096 39.2202 40.5381 39.1131C40.6666 39.006 40.838 38.9417 41.0093 38.9631C41.1379 38.9631 41.2449 38.9846 41.352 39.0488C41.4377 39.1131 41.4806 39.1988 41.502 39.3058L41.2235 39.4344C41.2235 39.4344 41.1807 39.3273 41.1379 39.2844C41.0909 39.2611 41.0401 39.2466 40.9879 39.2416C40.9023 39.2416 40.838 39.263 40.7737 39.3058C40.7095 39.3487 40.6666 39.4129 40.6452 39.4986C40.6238 39.6271 40.7095 39.7342 40.9023 39.8413H40.9451C41.0736 39.9056 41.2021 39.9912 41.2878 40.1198C41.3306 40.2269 41.352 40.3339 41.3092 40.4625C41.2647 40.6486 41.1591 40.8145 41.0093 40.9337C40.8594 41.0408 40.6666 41.105 40.4953 41.105C40.3557 41.1084 40.2194 41.0629 40.1098 40.9765C40.0027 40.8908 39.9384 40.7623 39.9598 40.6338ZM42.3587 41.0408L42.8514 38.9846H43.1726L42.68 41.0408H42.3587ZM43.1512 41.0408L43.6653 38.9203L44.6291 40.1626C44.6291 40.1626 44.6719 40.2269 44.7148 40.2697C44.7576 40.3125 44.7576 40.3554 44.8005 40.3982L45.1432 38.9846H45.443L44.929 41.105L43.9437 39.8199L43.858 39.7128L43.7938 39.5843L43.4511 41.0193H43.1512V41.0408ZM46.4711 39.2844L46.0427 41.0408H45.7215L46.1498 39.2844H45.6144L45.6786 39.006H47.0708L47.0066 39.2844H46.4711ZM46.8138 41.0408L47.3064 38.9846H48.4202L48.356 39.263H47.5635L47.435 39.7771H48.2275L48.1632 40.0769H47.3707L47.2208 40.7409H48.0133L47.949 41.0408H46.8352H46.8138ZM48.8272 40.1198L48.613 41.0408H48.3131L48.8058 38.9846H49.2556C49.2556 38.9846 49.4483 38.9846 49.5554 39.006C49.6197 39.006 49.6839 39.0488 49.7268 39.0917C49.7696 39.1345 49.8124 39.2202 49.8124 39.2844V39.5415C49.791 39.6914 49.7053 39.8199 49.5983 39.927C49.4876 40.0179 49.3543 40.0771 49.2127 40.0983L49.6839 41.0193H49.3198L48.87 40.0983H48.8272V40.1198ZM48.9129 39.8627H48.9771C49.1056 39.8627 49.2127 39.8627 49.3412 39.7985C49.4055 39.7556 49.4697 39.67 49.4697 39.5843C49.4912 39.4772 49.4697 39.3915 49.4269 39.3487C49.3412 39.2844 49.2127 39.263 49.1056 39.2844H49.0414L48.9129 39.8627ZM49.8767 41.0408L50.3693 38.9846H51.4831L51.4188 39.263H50.6263L50.4978 39.7771H51.2903L51.2261 40.0769H50.4336L50.198 41.0408H49.8767ZM52.554 41.0408L52.4469 40.5053H51.6544L51.2903 41.0408H50.9476L52.4255 38.9203L52.8753 41.0622H52.5326L52.554 41.0408ZM51.8472 40.2269H52.4041L52.3184 39.7556V39.52C52.3184 39.5629 52.2756 39.6057 52.2542 39.6485C52.2542 39.6914 52.2113 39.7128 52.1899 39.7556L51.8686 40.2269H51.8472ZM55.0172 39.4986C55.0172 39.4986 54.8673 39.3487 54.7602 39.3273C54.6146 39.2668 54.4548 39.2489 54.2994 39.2754C54.144 39.3019 53.9993 39.3719 53.882 39.4772C53.7106 39.6271 53.5821 39.8199 53.5393 40.0341C53.475 40.2269 53.5179 40.4196 53.6036 40.591C53.7106 40.7409 53.882 40.8266 54.0533 40.8052C54.1819 40.8052 54.2889 40.7837 54.396 40.7409C54.5246 40.6981 54.6531 40.6338 54.7602 40.5481L54.6745 40.9337C54.6745 40.9337 54.4603 41.0408 54.3532 41.0836C54.2461 41.105 54.1176 41.1264 54.0105 41.1264C53.8606 41.1264 53.7321 41.105 53.6036 41.0408C53.4899 40.9908 53.3932 40.9089 53.3251 40.8052C53.2453 40.7065 53.1935 40.5881 53.1752 40.4625C53.1752 40.3125 53.1752 40.184 53.1966 40.0341C53.2394 39.8842 53.2823 39.7342 53.3679 39.6057C53.4536 39.4772 53.5607 39.3487 53.6678 39.263C53.9033 39.0669 54.1969 38.954 54.5031 38.9417C54.6102 38.9417 54.7173 38.9417 54.8244 38.9846C54.9315 39.0274 55.0172 39.0702 55.1029 39.1559L55.0172 39.4986ZM55.06 41.0408L55.5527 38.9846H56.6664L56.6022 39.263H55.8097L55.6812 39.7771H56.4737L56.4094 40.0769H55.6169L55.467 40.7409H56.2595L56.1952 41.0408H55.0814H55.06ZM49.127 37.2068H46.8995L50.0052 25.9834H52.2328L49.127 37.2068ZM47.9704 26.3475C47.8205 26.1333 47.5849 26.0262 47.2636 26.0262H34.9907L34.391 28.2324H45.5501L44.9076 30.5884H33.7484L31.9064 37.2711H34.1339L35.3762 32.7731H45.4216C45.7429 32.7731 46.0642 32.666 46.2998 32.4519C46.5568 32.2591 46.7496 31.9806 46.8352 31.6594L48.0775 27.1614C48.1846 26.8187 48.1418 26.5617 47.9918 26.3475H47.9704ZM30.557 36.5C30.4965 36.715 30.3676 36.9045 30.1899 37.0398C30.0121 37.175 29.7951 37.2487 29.5717 37.2497H18.0485C17.77 37.2497 17.513 37.1426 17.3416 36.9284C17.2668 36.8122 17.2184 36.681 17.1999 36.544C17.1814 36.4071 17.1932 36.2677 17.2346 36.1359L20.0404 26.0262H22.268L19.762 35.0649H28.6936L31.1996 26.0262H33.4271L30.5142 36.5H30.557ZM54.0962 26.0262L56.9235 31.6379L50.9905 37.2497L54.0962 26.0262Z" fill="url(#paint1_linear_2082_915)"/>
<path d="M56.0881 26.0264L55.5527 27.9541L57.309 31.4453L57.4589 31.7238L57.2233 31.9379L53.4536 35.5149L52.9824 37.2498L58.9154 31.6381L56.0881 26.0264Z" fill="url(#paint2_linear_2082_915)"/>
<defs>
<filter id="filter0_di_2082_915" x="5.4121e-05" y="5.4121e-05" width="81.9058" height="74.6983" filterUnits="userSpaceOnUse" color-interpolation-filters="sRGB">
<feFlood flood-opacity="0" result="BackgroundImageFix"/>
<feColorMatrix in="SourceAlpha" type="matrix" values="0 0 0 0 0 0 0 0 0 0 0 0 0 0 0 0 0 0 127 0" result="hardAlpha"/>
<feOffset dx="3.93148" dy="3.93148"/>
<feGaussianBlur stdDeviation="2.62099"/>
<feComposite in2="hardAlpha" operator="out"/>
<feColorMatrix type="matrix" values="0 0 0 0 0 0 0 0 0 0 0 0 0 0 0 0 0 0 1 0"/>
<feBlend mode="normal" in2="BackgroundImageFix" result="effect1_dropShadow_2082_915"/>
<feBlend mode="normal" in="SourceGraphic" in2="effect1_dropShadow_2082_915" result="shape"/>
<feColorMatrix in="SourceAlpha" type="matrix" values="0 0 0 0 0 0 0 0 0 0 0 0 0 0 0 0 0 0 127 0" result="hardAlpha"/>
<feOffset dx="6.55246" dy="6.55246"/>
<feGaussianBlur stdDeviation="2.94861"/>
<feComposite in2="hardAlpha" operator="arithmetic" k2="-1" k3="1"/>
<feColorMatrix type="matrix" values="0 0 0 0 0 0 0 0 0 0 0 0 0 0 0 0 0 0 0.25 0"/>
<feBlend mode="normal" in2="shape" result="effect2_innerShadow_2082_915"/>
</filter>
<linearGradient id="paint0_linear_2082_915" x1="1.31055" y1="6.22489" x2="72.7324" y2="60.938" gradientUnits="userSpaceOnUse">
<stop/>
<stop offset="0.528929" stop-color="#282828"/>
<stop offset="1"/>
</linearGradient>
<linearGradient id="paint1_linear_2082_915" x1="16.0898" y1="33.5656" x2="56.9235" y2="33.5656" gradientUnits="userSpaceOnUse">
<stop stop-color="#C6B36A"/>
<stop offset="0.403846" stop-color="#DBC995"/>
<stop offset="0.692308" stop-color="#EFDFB2"/>
<stop offset="1" stop-color="#B69F59"/>
</linearGradient>
<linearGradient id="paint2_linear_2082_915" x1="58.9154" y1="31.6381" x2="52.9824" y2="31.6381" gradientUnits="userSpaceOnUse">
<stop stop-color="#D3C185"/>
<stop offset="0.550305" stop-color="#ECDCAD"/>
</linearGradient>
</defs>
</svg>
